<?xml version="1.0" encoding="utf-8"?>
<!-- Generator: Adobe Illustrator 16.0.0, SVG Export Plug-In . SVG Version: 6.00 Build 0)  -->
<!DOCTYPE svg PUBLIC "-//W3C//DTD SVG 1.1//EN" "http://www.w3.org/Graphics/SVG/1.1/DTD/svg11.dtd">
<svg version="1.1" id="Layer_1" xmlns="http://www.w3.org/2000/svg" xmlns:xlink="http://www.w3.org/1999/xlink" x="0px" y="0px"
	 width="1600px" height="900px" viewBox="0 0 1600 900" enable-background="new 0 0 1600 900" xml:space="preserve">
<path fill="#FA4568" d="M1554,0H46C20.64,0,0,20.64,0,46v808c0,25.36,20.64,46,46,46h1508c25.36,0,46-20.64,46-46V46
	C1600,20.64,1579.361,0,1554,0z M1590,854c0,19.85-16.15,36-36,36H46c-19.85,0-36-16.15-36-36v-9c2.74-20.5,20.27-36.13,41.31-36.13
	H1553.02c19.711,0,35.94,15.5,36.851,35.189l0.13,2.841V854z M1590,729.64l-0.13,2.841c-0.91,19.689-17.14,35.189-36.851,35.189
	H51.31c-21.04,0-38.57-15.63-41.31-36.13V499.73l0.23-2.421c1.14-12.21,11.39-21.55,23.65-21.55h1.81
	c14.23,0,25.77-11.529,25.77-25.76c0-14.23-11.54-25.76-25.77-25.76h-1.81c-12.26,0-22.51-9.34-23.65-21.55L10,400.27V46
	c0-19.85,16.15-36,36-36h1508c19.85,0,36,16.15,36,36v353.85l-0.27,2.84c-1.141,12.21-11.391,21.55-23.65,21.55h-1.811
	c-14.229,0-25.77,11.53-25.77,25.76c0,14.23,11.54,25.76,25.77,25.76h1.811c12.26,0,22.51,9.34,23.65,21.55l0.27,2.841V729.64z"/>
<path fill="none" stroke="#FFFFFF" stroke-width="5" stroke-linecap="round" stroke-linejoin="round" d="M1558.89,444.622
	l4.22,4.226c0.641,0.637,0.641,1.668,0,2.305l-4.22,4.226"/>
<path fill="none" stroke="#FFFFFF" stroke-width="5" stroke-linecap="round" stroke-linejoin="round" d="M41.071,455.378
	l-4.227-4.226c-0.636-0.637-0.636-1.668,0-2.305l4.227-4.226"/>
<g>
	<path fill="#FA4568" d="M1590,399.85v100.3l0.03,0.319V399.53L1590,399.85z"/>
</g>
</svg>
