<svg width="1600" height="900" viewBox="0 0 1600 900" fill="none" xmlns="http://www.w3.org/2000/svg">
<path d="M1554 0H46C20.64 0 0 20.64 0 46V854C0 879.36 20.64 900 46 900H1554C1579.36 900 1600 879.36 1600 854V46C1600 20.64 1579.36 0 1554 0ZM1590 854C1590 873.85 1573.85 890 1554 890H46C26.15 890 10 873.85 10 854V845C12.74 824.5 30.27 808.87 51.31 808.87H1553.02C1572.73 808.87 1588.96 824.37 1589.87 844.059L1590 846.9L1590 854ZM1590 729.64L1589.87 732.481C1588.96 752.17 1572.73 767.67 1553.02 767.67H51.31C30.27 767.67 12.74 752.04 10 731.54V499.73L10.23 497.309C11.37 485.099 21.62 475.759 33.88 475.759H35.69C49.92 475.759 61.46 464.23 61.46 449.999C61.46 435.769 49.92 424.239 35.69 424.239H33.88C21.62 424.239 11.37 414.899 10.23 402.689L10 400.27V46C10 26.15 26.15 10 46 10H1554C1573.85 10 1590 26.15 1590 46V399.85L1589.73 402.69C1588.59 414.9 1578.34 424.24 1566.08 424.24H1564.27C1550.04 424.24 1538.5 435.77 1538.5 450C1538.5 464.23 1550.04 475.76 1564.27 475.76H1566.08C1578.34 475.76 1588.59 485.1 1589.73 497.31L1590 500.151V729.64Z" fill="#1A2A40"/>
<path d="M1558.89 444.621L1563.11 448.847C1563.75 449.484 1563.75 450.515 1563.11 451.152L1558.89 455.378" stroke="#E8E64A" stroke-width="5" stroke-linecap="round" stroke-linejoin="round"/>
<path d="M41.0712 455.378L36.8442 451.152C36.2082 450.515 36.2082 449.484 36.8442 448.847L41.0712 444.621" stroke="#E8E64A" stroke-width="5" stroke-linecap="round" stroke-linejoin="round"/>
</svg>
