<svg width="1600" height="900" viewBox="0 0 1600 900" fill="none" xmlns="http://www.w3.org/2000/svg">
<path d="M1548.48 450C1548.48 435.772 1560.01 424.238 1574.24 424.238H1576.05C1588.32 424.238 1598.56 414.901 1599.7 402.689L1600 399.526V424.238V475.762V500.475L1599.7 497.311C1598.56 485.099 1588.32 475.762 1576.05 475.762H1574.24C1560.01 475.762 1548.48 464.228 1548.48 450Z" fill="#1A2A40"/>
<path d="M1568.74 444.622L1572.96 448.848C1573.6 449.485 1573.6 450.516 1572.96 451.152L1568.74 455.378" stroke="#E8E64A" stroke-width="5" stroke-linecap="round" stroke-linejoin="round"/>
<path d="M51.5244 450C51.5244 464.228 39.9903 475.763 25.7623 475.763L23.9495 475.763C11.6844 475.763 1.43536 485.099 0.295526 497.312L0.000276081 500.475L0.00027392 475.763L0.000269416 424.238L0.000267256 399.526L0.295517 402.689C1.43536 414.901 11.6843 424.238 23.9495 424.238L25.7623 424.238C39.9903 424.238 51.5244 435.772 51.5244 450Z" fill="#1A2A40"/>
<path d="M31.0185 455.378L26.7925 451.152C26.1563 450.516 26.1563 449.485 26.7925 448.848L31.0185 444.622" stroke="#E8E64A" stroke-width="5" stroke-linecap="round" stroke-linejoin="round"/>
<path d="M1600 767.668V727.904L1599.79 732.487C1598.87 752.175 1582.65 767.669 1562.94 767.67L41.6496 767.773C19.3736 767.774 1.03162 750.264 0 728.012V767.776L5.71834e-06 808.982L7.62445e-06 848.745C1.03167 826.492 19.3728 808.98 41.6496 808.979L1562.93 808.876C1582.64 808.875 1598.87 824.369 1599.79 844.059L1600 848.637V808.874V767.668Z" fill="#1A2A40"/>
</svg>
