<svg width="1241" height="1600" viewBox="0 0 1241 1600" fill="none" xmlns="http://www.w3.org/2000/svg">
<path d="M1101.56 800C1101.56 765.853 1129.24 738.171 1163.39 738.171H1167.74C1197.17 738.171 1221.77 715.762 1224.51 686.453L1225.21 678.862V738.171V861.829V921.139L1224.51 913.547C1221.77 884.238 1197.17 861.829 1167.74 861.829H1163.39C1129.24 861.829 1101.56 834.147 1101.56 800Z" fill="#1A2A40"/>
<path d="M1150.19 787.093L1160.33 797.235C1161.86 798.762 1161.86 801.238 1160.33 802.765L1150.19 812.907" stroke="#E8E64A" stroke-width="12" stroke-linecap="round" stroke-linejoin="round"/>
<path d="M138.625 800C138.625 834.147 110.943 861.829 76.796 861.829L72.4453 861.829C43.0089 861.829 18.4113 884.238 15.6757 913.547L14.9671 921.138L14.9671 861.829L14.967 738.171L14.967 678.861L15.6756 686.453C18.4113 715.762 43.0088 738.171 72.4453 738.171L76.796 738.171C110.943 738.171 138.625 765.853 138.625 800Z" fill="#1A2A40"/>
<path d="M89.4112 812.907L79.2688 802.765C77.7418 801.238 77.7418 798.762 79.2688 797.235L89.4112 787.093" stroke="#E8E64A" stroke-width="12" stroke-linecap="round" stroke-linejoin="round"/>
<path d="M1240.18 1235.27V1115.98L1239.51 1129.92C1236.69 1188.91 1188.05 1235.28 1128.99 1235.3L125.143 1235.57C58.285 1235.58 3.19968 1183.09 0 1116.31L5.90979e-06 1235.6L1.77294e-05 1359.22L2.36392e-05 1478.51C3.20016 1411.72 58.2751 1359.2 125.143 1359.18L1128.94 1358.92C1188.01 1358.9 1236.69 1405.29 1239.52 1464.3L1240.18 1478.18V1358.89V1235.27Z" fill="#1A2A40"/>
</svg>
