<svg width="1200" height="1600" viewBox="0 0 1200 1600" fill="none" xmlns="http://www.w3.org/2000/svg">
<path d="M1076.34 800C1076.34 765.853 1104.03 738.171 1138.17 738.171H1142.52C1171.96 738.171 1196.56 715.762 1199.29 686.453L1200 678.862V738.171V861.829V921.139L1199.29 913.547C1196.56 884.238 1171.96 861.829 1142.52 861.829H1138.17C1104.03 861.829 1076.34 834.147 1076.34 800Z" fill="#1A2A40"/>
<path d="M1124.97 787.093L1135.12 797.235C1136.64 798.762 1136.64 801.238 1135.12 802.765L1124.97 812.907" stroke="#E8E64A" stroke-width="12" stroke-linecap="round" stroke-linejoin="round"/>
<path d="M123.658 800C123.658 834.147 95.9764 861.829 61.8292 861.829L57.4785 861.829C28.0421 861.829 3.44447 884.238 0.708865 913.547L0.000267029 921.138L0.000261844 861.829L0.000251033 738.171L0.000245848 678.861L0.708845 686.453C3.44446 715.762 28.042 738.171 57.4785 738.171L61.8292 738.171C95.9764 738.171 123.658 765.853 123.658 800Z" fill="#1A2A40"/>
<path d="M74.4444 812.907L64.302 802.765C62.7751 801.238 62.7751 798.762 64.302 797.235L74.4444 787.093" stroke="#E8E64A" stroke-width="12" stroke-linecap="round" stroke-linejoin="round"/>
<path d="M1200.01 1235.27V1115.98L1199.37 1129.75C1196.63 1188.81 1147.96 1235.29 1088.84 1235.3L124.949 1235.57C58.1249 1235.58 3.0947 1183.06 0 1116.31L5.71834e-06 1235.6L1.7155e-05 1359.22L2.28734e-05 1478.51C3.09517 1411.74 58.1145 1359.2 124.949 1359.18L1088.78 1358.92C1147.93 1358.9 1196.63 1405.39 1199.37 1464.47L1200.01 1478.18V1358.89V1235.27Z" fill="#1A2A40"/>
</svg>
