<svg width="6000" height="8000" viewBox="0 0 6000 8000" fill="none" xmlns="http://www.w3.org/2000/svg">
<path d="M5381.71 4000C5381.71 3829.26 5520.12 3690.85 5690.85 3690.85H5712.61C5859.79 3690.85 5982.78 3578.81 5996.46 3432.27L6000 3394.31V3690.85V4309.14V4605.69L5996.46 4567.73C5982.78 4421.19 5859.79 4309.14 5712.61 4309.14H5690.85C5520.12 4309.14 5381.71 4170.74 5381.71 4000Z" fill="#1A2A40"/>
<path d="M5624.86 3935.46L5675.58 3986.18C5683.21 3993.81 5683.21 4006.19 5675.58 4013.82L5624.86 4064.54" stroke="#E8E64A" stroke-width="60" stroke-linecap="round" stroke-linejoin="round"/>
<path d="M618.291 4000C618.291 4170.74 479.882 4309.15 309.146 4309.15L287.392 4309.15C140.21 4309.15 17.2224 4421.19 3.54432 4567.73L0.00133514 4605.69L0.00130922 4309.15L0.00125517 3690.86L0.00122924 3394.31L3.54421 3432.27C17.2223 3578.81 140.21 3690.86 287.392 3690.86L309.146 3690.86C479.882 3690.86 618.291 3829.26 618.291 4000Z" fill="#1A2A40"/>
<path d="M372.222 4064.54L321.51 4013.82C313.875 4006.19 313.875 3993.81 321.51 3986.18L372.222 3935.46" stroke="#E8E64A" stroke-width="60" stroke-linecap="round" stroke-linejoin="round"/>
<path d="M6000 6176.36V5579.91L5996.81 5648.76C5983.12 5944.04 5739.78 6176.43 5444.18 6176.51L624.745 6177.83C290.624 6177.92 15.4734 5915.3 0 5581.54L2.85916e-05 6177.99L8.57747e-05 6796.08L0.000114366 7392.53C15.4758 7058.72 290.572 6796.01 624.743 6795.92L5443.89 6794.6C5739.6 6794.52 5983.13 7026.95 5996.82 7322.35L6000 7390.9V6794.45V6176.36Z" fill="#1A2A40"/>
</svg>
