<svg width="1200" height="1600" viewBox="0 0 1200 1600" fill="none" xmlns="http://www.w3.org/2000/svg">
<path d="M1148.48 800C1148.48 785.772 1160.01 774.238 1174.24 774.238H1176.05C1188.32 774.238 1198.57 764.901 1199.71 752.689L1200 749.526V774.238V825.762V850.474L1199.71 847.311C1198.57 835.099 1188.32 825.762 1176.05 825.762H1174.24C1160.01 825.762 1148.48 814.228 1148.48 800Z" fill="#1A2A40"/>
<path d="M1168.74 794.622L1172.97 798.848C1173.6 799.484 1173.6 800.516 1172.97 801.152L1168.74 805.378" stroke="#E8E64A" stroke-width="5" stroke-linecap="round" stroke-linejoin="round"/>
<path d="M51.5244 800C51.5244 814.228 39.9903 825.762 25.7623 825.762L23.9495 825.762C11.6844 825.762 1.43536 835.099 0.295526 847.311L0.000276081 850.474L0.00027392 825.762L0.000269416 774.238L0.000267256 749.526L0.295517 752.689C1.43536 764.901 11.6843 774.238 23.9495 774.238L25.7623 774.238C39.9903 774.238 51.5244 785.772 51.5244 800Z" fill="#1A2A40"/>
<path d="M31.0185 805.378L26.7925 801.152C26.1563 800.516 26.1563 799.484 26.7925 798.848L31.0185 794.622" stroke="#E8E64A" stroke-width="5" stroke-linecap="round" stroke-linejoin="round"/>
<path d="M1200 1338.91V1299.14L1199.79 1303.73C1198.88 1323.42 1182.65 1338.91 1162.94 1338.91L41.6497 1339.01C19.3738 1339.01 1.03162 1321.5 0 1299.25V1339.02L5.71834e-06 1380.22L7.62445e-06 1419.99C1.03167 1397.73 19.3726 1380.22 41.6496 1380.22L1162.93 1380.12C1182.65 1380.11 1198.88 1395.61 1199.79 1415.3L1200 1419.88V1380.11V1338.91Z" fill="#1A2A40"/>
</svg>
