<svg width="1600" height="900" viewBox="0 0 1600 900" fill="none" xmlns="http://www.w3.org/2000/svg">
<path d="M1538.5 450C1538.5 435.772 1550.04 424.238 1564.27 424.238H1566.08C1578.34 424.238 1588.59 414.901 1589.73 402.689L1590.03 399.526V424.238V475.762V500.474L1589.73 497.311C1588.59 485.099 1578.34 475.762 1566.08 475.762H1564.27C1550.04 475.762 1538.5 464.228 1538.5 450Z" fill="#FA4568"/>
<path d="M1558.89 444.622L1563.11 448.848C1563.75 449.484 1563.75 450.516 1563.11 451.152L1558.89 455.378" stroke="white" stroke-width="5" stroke-linecap="round" stroke-linejoin="round"/>
<path d="M61.4551 450C61.4551 464.228 49.921 475.762 35.693 475.762L33.8802 475.762C21.615 475.762 11.366 485.099 10.2262 497.311L9.93094 500.474L9.93094 475.762L9.93093 424.238L9.93093 399.526L10.2262 402.689C11.366 414.901 21.615 424.238 33.8802 424.238L35.693 424.238C49.921 424.238 61.4551 435.772 61.4551 450Z" fill="#FA4568"/>
<path d="M41.0703 455.378L36.8442 451.152C36.208 450.516 36.208 449.484 36.8442 448.848L41.0703 444.622" stroke="white" stroke-width="5" stroke-linecap="round" stroke-linejoin="round"/>
<rect x="5" y="5" width="1590" height="890" rx="41" stroke="#FA4568" stroke-width="10"/>
<path d="M1590.08 767.667V727.904L1589.87 732.483C1588.96 752.173 1572.73 767.667 1553.02 767.667L51.3141 767.667C29.0378 767.667 10.6964 750.156 9.66504 727.904V767.667L9.66504 808.873L9.66505 848.637C10.6964 826.384 29.0378 808.873 51.3141 808.873L1553.02 808.873C1572.73 808.873 1588.96 824.367 1589.87 844.057L1590.08 848.637V808.873V767.667Z" fill="#FA4568"/>
</svg>
