<svg width="486" height="486" viewBox="0 0 486 486" fill="none" xmlns="http://www.w3.org/2000/svg">
<path fill-rule="evenodd" clip-rule="evenodd" d="M211.728 0.422612L218.563 1.65794L217.994 6.4042L218.807 6.55049L219.904 8.36284L220.156 10.0127L221.115 10.9717L220.408 14.8808L221.757 15.1246L220.912 19.7896L222.285 20.0416L221.863 22.3903L223.244 22.6341L221.261 33.557L222.61 33.8008L220.636 44.7156L222.009 44.9676L216.206 76.956L217.271 78.7521L215.15 92.0725L216.247 92.2676L209.461 131.294L210.55 131.497L208.461 141.226L215.581 141.347L221.993 141.445C225.117 141.498 231.338 144.084 232.981 144.111C234.624 144.137 236.935 142.847 238.588 141.713C240.241 140.58 241.383 141.762 243.302 141.794C245.223 141.826 246.788 144.334 250.568 144.395C254.348 144.456 262.175 143.503 263.88 144.615C265.582 145.727 265.855 144.646 267.497 144.671L276.047 144.81C277.625 144.835 280.801 145.823 282.191 146.313L288.514 147.809L292.797 146.768L300.745 148.012L321.721 148.345L322.753 142.705L321.656 142.51L323.355 131.538L322.258 131.343L325.939 109.457L324.874 109.261L328.125 91.333L329.474 91.5768L333.148 74.5341L333.822 73.8433L340.609 38.027L341.966 38.2789L344.372 28.2256L345.469 26.8196L346.428 24.5684L347.403 23.9589L349.045 21.0412L351.02 14.9377L351.694 14.2469L352.263 11.1342L353.214 10.5165L354.604 7.52575L354.888 5.97346L358.066 4.1286L358.627 1.01589L360.13 0.471375L363.95 1.16218L363.381 5.90844L364.478 6.10349L365.266 9.46001L366.217 12.0607L367.453 13.101L366.746 16.9776L368.916 17.3759L370.687 18.5055L370.257 20.8543L371.354 22.6585L371.069 25.82L371.598 29.1359L370.72 38.6446L370.972 40.3026L370.403 43.4315L371.224 43.5859L371.216 46.7962L370.931 48.3484L371.752 48.5029L372.955 52.7534L367.298 83.9454L366.063 84.5143L363.511 98.5661L360.545 113.309L359.049 115.463L358.765 117.047L356.075 130.23L354.1 141.152L353.003 140.949L352.149 144.038L351.979 144.948L362.316 145.118L362.308 146.492L374.881 147.264L375.458 147.825L401.766 148.532L401.757 149.905L409.202 150.596L410.34 151.45L412.054 152.018L412.607 152.88L414.883 154.01L419.458 154.936L420.035 155.489L422.319 155.529L422.872 156.366L425.172 157.236L426.31 157.252L428.008 160.081L430.292 160.113L430.861 161.503L430.828 165.388L427.382 165.615L427.374 166.737L425.082 168.07L423.343 169.443L422.75 170.833L419.905 170.784L419.889 172.987L419.296 174.921L417.573 174.896L416.419 176.278L414.135 176.522L411.835 177.603L404.959 178.318L403.814 178.846L401.514 178.806L401.505 179.635L399.222 180.171L398.076 180.155L398.068 180.984L395.191 182.877L372.296 182.512L371.744 181.39L361.43 181.219L350.581 180.764L348.866 179.643L347.704 179.626L347.151 179.594L343.348 202.041L344.136 203.788L343.567 206.901L341.446 220.213L338.618 234.192L337.26 235.549L335.708 242.514L334.611 242.319L334.042 245.456L332.49 252.413L331.783 256.322L330.685 256.119L330.117 259.232L327.605 271.658L325.76 281.809L324.663 281.614L321.721 297.803L327.727 296.121L335.253 297.202C336.663 297.225 339.699 297.078 340.552 296.324C341.405 295.572 343.376 295.203 344.258 295.113L357.058 297.551L364.096 294.317L368.729 293.301L369.379 294.406L372.012 295.56L374.401 294.487L376.872 294.528L377.977 293.455L380.359 293.488L381.545 295.715L383.154 295.739L383.162 294.626L393.46 294.796L393.443 295.91L398.596 295.991L398.58 297.397L399.742 297.413L401.44 298.267L402.57 299.12L404.293 299.713L404.862 300.55L406.585 300.583L407.089 307.255L407.032 314.204L403.586 314.432L403.578 315.26L402.424 316.642L401.278 317.17L400.709 318.276L397.848 318.227L397.832 319.6L394.41 319.544L394.394 320.941L392.671 320.917L392.663 322.315L384.65 322.185L384.642 323.558L376.628 323.428L376.62 324.826L353.141 324.452L351.995 325.801L342.258 325.931L342.25 327.045L315.163 326.882L311.928 344.697C311.335 347.966 309.841 350.835 309.482 352.816C309.193 354.403 306.62 360.54 305.369 363.414L305.849 378.197L303.045 388.291C302.696 390.212 302.133 394.381 302.679 395.671C303.225 396.959 303.128 399.716 303.012 400.937L297.649 418.012L299.209 428.155L299.144 434.657L297.9 435.355L296.153 438.761L296.665 442.207L296.047 445.571L296.852 447.262L296.267 450.504L293.796 451.748L293.398 453.942L294.495 454.137L291.951 468.173L290.854 467.97L289.578 474.983L288.205 474.732L287.912 476.316L286.677 478.486L285.58 479.9L284.596 482.144L283.637 482.786L283.207 485.134L276.51 484.712L269.675 483.468L270.252 478.722L269.431 478.576L268.334 476.771L268.082 475.114L267.123 474.155L267.838 470.253L266.481 470.002L267.326 465.337L265.953 465.093L266.375 462.744L265.002 462.492L266.977 451.577L265.628 451.325L267.611 440.411L266.237 440.159L272.04 408.17L270.967 406.374L273.088 393.054L271.991 392.859L278.785 353.832L277.688 353.637L281.5 335.806L282.183 335.107L284.019 326.59L284.068 326.2C283.72 326.136 283.409 326.098 283.174 326.094L274.949 325.956L267.554 325.842L261.141 325.736C258.017 325.684 251.797 323.098 250.153 323.071C248.51 323.044 246.199 324.335 244.546 325.468C242.892 326.602 241.745 325.418 239.824 325.387C237.904 325.352 236.343 322.848 232.566 322.786C228.786 322.725 220.957 323.679 219.254 322.567C217.553 321.454 217.279 322.535 215.637 322.51L207.088 322.372C205.51 322.346 202.333 321.358 200.943 320.868L194.621 319.373L190.338 320.413L182.389 319.17L169.743 318.966L165.493 342.421L166.59 342.617L164.883 353.588L165.98 353.783L162.307 375.67L163.372 375.865L160.121 393.801L158.764 393.549L155.098 410.592L154.416 411.283L147.629 447.099L146.28 446.855L143.875 456.901L142.777 458.315L141.818 460.558L140.835 461.175L139.201 464.093L137.227 470.188L136.544 470.879L135.983 473.992L135.024 474.61L133.634 477.6L133.358 479.153L130.18 480.998L129.611 484.118L128.116 484.655L124.288 483.964L124.865 479.226L123.76 479.023L122.98 475.666L122.029 473.065L120.793 472.025L121.492 468.149L119.331 467.758L117.559 466.621L117.981 464.272L116.884 462.468L117.169 459.306L116.641 455.99L117.526 446.482L117.266 444.832L117.835 441.695L117.022 441.548L117.031 438.33L117.307 436.778L116.494 436.631L115.283 432.381L120.948 401.181L122.183 400.62L124.727 386.56L127.693 371.817L129.189 369.664L129.481 368.079L132.163 354.897L134.146 343.982L135.244 344.177L136.089 341.089L137.357 334.099L135.983 333.855L138.275 321.177L133.984 321.193L133.976 322.274L120.818 322.063L120.826 320.689L108.253 319.917L107.676 319.365L81.3687 318.65L81.3768 317.276L73.9323 316.585L72.7945 315.74L71.0797 315.163L70.527 314.301L68.2514 313.172L63.6677 312.245L63.0988 311.693L60.8151 311.66L60.2624 310.815L57.9624 309.945L56.8246 309.929L55.1261 307.109L52.8423 307.068L52.2734 305.679L52.3059 301.794L55.7519 301.566L55.76 300.453L58.0518 299.112L59.7911 297.746L60.3843 296.349L63.2288 296.397L63.2451 294.195L63.8384 292.261L65.5613 292.293L66.7154 290.903L68.9991 290.66L71.2991 289.579L78.1666 288.863L79.3206 288.335L81.6206 288.376L81.6287 287.547L83.9125 287.011L85.0584 287.035L85.0665 286.206L87.9435 284.304L110.838 284.67L111.39 285.8L121.704 285.962L132.553 286.425L134.268 287.539L135.43 287.555L144.07 287.945L144.899 283.093L144.11 281.338L144.671 278.233L146.8 264.913L149.629 250.934L150.978 249.577L152.538 242.612L153.627 242.815L154.196 239.678L155.757 232.713L156.464 228.812L157.553 229.007L158.122 225.894L160.641 213.468L162.486 203.317L163.575 203.512L167.395 182.471C168.342 179.623 170.32 173.465 170.662 171.589L170.995 169.736C169.23 169.23 167.14 168.56 165.875 168.126L155.407 171.069L147.881 169.988C146.472 169.965 143.435 170.103 142.582 170.857C141.73 171.61 139.759 171.978 138.876 172.068L126.076 169.63L119.038 172.865L114.406 173.88L113.755 172.775L111.122 171.621L108.733 172.694L106.262 172.653L105.157 173.734L102.776 173.694L101.589 171.467L99.9798 171.442L99.9717 172.556L89.6746 172.385L89.6909 171.272L84.5382 171.19L84.5545 169.793L83.3923 169.768L81.6937 168.915L80.5641 168.07L78.8411 167.468L78.2722 166.631L76.5493 166.599L76.0454 159.926L76.1023 152.986L79.5482 152.758L79.5563 151.921L80.7104 150.539L81.8563 150.019L82.4252 148.914L85.2859 148.955L85.3022 147.581L88.7237 147.638L88.74 146.24L90.4629 146.273L90.4711 144.867L98.4844 144.997L98.4926 143.623L106.506 143.753L106.514 142.355L129.985 142.737L131.139 141.38L140.876 141.25L140.884 140.137L169.491 140.315L169.5 139.202L176.489 139.616C177.158 136.686 178.435 134.125 178.764 132.31C179.056 130.719 181.627 124.584 182.877 121.712L182.389 106.929L185.201 96.8351C185.55 94.9139 186.105 90.7453 185.559 89.4556C185.014 88.1649 185.11 85.408 185.226 84.1892L190.59 67.1141L189.029 56.9714L189.102 50.4778L190.338 49.7707L192.085 46.3654L191.581 42.9276L192.191 39.5549L191.386 37.8644L191.979 34.6217L194.442 33.3782L194.84 31.1839L193.743 30.9888L196.295 16.9614L197.384 17.1564L198.66 10.1427L200.041 10.3946L200.326 8.80984L201.561 6.63989L202.658 5.23389L203.65 2.98267L204.609 2.34062L205.031 0L211.728 0.422612ZM201.642 172.775L196.197 202.797C195.424 207.054 191.435 215.121 191.028 217.361C190.623 219.6 191.358 222.969 192.093 225.415C192.828 227.862 191.398 229.225 190.923 231.843C190.448 234.462 187.615 236.176 186.68 241.328C185.746 246.478 184.878 257.321 183.389 259.468C181.898 261.606 182.901 262.161 182.495 264.401L180.382 276.047C179.992 278.197 178.285 282.367 177.48 284.182L175.952 288.506L178.903 288.555L197.798 288.571L198.944 287.498L201.228 287.539L210.964 287.409L221.253 287.856L222.391 288.969L227.536 289.335L227.527 290.448L229.827 290.489L234.972 290.855L237.833 290.903L237.825 292.017L240.108 292.057L249.259 292.464L256.704 292.586L256.696 293.699L272.137 293.943C274.278 294.401 278.903 295.325 280.281 295.349L289.66 295.495L292.049 282.337C292.821 278.083 296.809 270.017 297.218 267.774C297.624 265.534 296.888 262.158 296.153 259.711C295.418 257.264 296.84 255.901 297.315 253.283C297.791 250.665 300.631 248.95 301.566 243.798C302.5 238.645 303.367 227.797 304.857 225.659C306.348 223.521 305.347 222.971 305.751 220.734L307.864 209.079C308.255 206.928 309.962 202.759 310.766 200.944L313.708 192.557L313.667 186.534L315.886 178.814L304.232 178.635L285.336 178.619L284.19 179.683L281.906 179.651L272.17 179.773L261.881 179.326L260.743 178.22L255.599 177.847L255.607 176.733L253.307 176.692L248.162 176.327L245.302 176.278L245.31 175.165L243.026 175.132L233.875 174.718L226.43 174.604L226.438 173.49L210.997 173.238C208.856 172.78 204.232 171.856 202.853 171.832L201.886 171.816C201.778 172.183 201.69 172.512 201.642 172.775Z" fill="#FA4568"/>
</svg>
