<svg width="1080" height="1080" viewBox="0 0 1080 1080" fill="none" xmlns="http://www.w3.org/2000/svg">
<path d="M848.27 664.29L835.42 663.53L835.15 668.38L823.3 667.68L822.96 673.48L812.23 672.85L812 676.73L798.02 675.9L797.68 681.72L793.39 681.46L793.15 685.61L784.21 687.73L780.4 695.29L767.85 694.53L767.62 698.41L764.63 698.23L764.7 702.23L765.09 704.92L769.22 705.39L768.33 713.19L764.88 712.8L765.24 725.88L766.89 726.07L766.68 727.77L768.72 728.01L768.67 730.46L766.69 731.12L765.26 731.61L763.96 732.05L765.18 736.65L709.82 757.64L708.6 753.05L704.76 754.77L705.98 759.37L700.14 761.43L698.1 762.16L689.64 765.09L690.86 769.69L679.14 774.21L677.92 769.61L675.05 770.37L672.29 771.42L668.92 773.24L668.64 772.82L657.16 777.21L642.36 783.22L642.15 783.3L640.95 778.7L619.62 786.46L597.72 794.37L596.7 792.38L596.46 791.89L596.25 791.08L595.94 789.93L593.51 790.87L593.46 790.89V790.87L593.54 785.28L592.31 785.38L590.43 761.18L589.85 746.3C576.56 748.16 562.34 749.83 547.87 750.91L546.67 751L545.47 750.91C529.27 749.7 513.38 747.76 498.79 745.63L498.66 754.26L495.94 754.41L493.93 754.17L494.03 764.41L494.81 764.51L498.05 764.9L498.33 765.92L498.98 768.43L499.01 771.92L499.09 784.05L499.03 795.74L497.88 795.72L497.75 795.7L494.28 795.64L494.36 803.15L492.79 802.23L490.52 805.62L439.54 777.9L441.81 774.51L438.08 772.73L435.81 776.12L428.69 772.07L421.09 767.69L418.82 771.09L407.98 765.25L410.25 761.85L407.82 760.23L391.3 751.31L377.23 744.02L378.96 741.43L373.9 738.4L359.7 732.65L356.78 730.9L356.44 731.32L344.54 726.49L344.39 721.87L339.43 721.46L337.79 706.34L333.53 705.98L333.7 703.78L332.52 703.85L332.18 698.03L325.72 698.42L325.49 694.54L312.89 695.31L309.12 687.75L300.19 685.63L299.95 681.48L295.66 681.74L295.32 675.92L281.34 676.75L281.11 672.87L270.38 673.5L270.04 667.7L258.19 668.4L257.92 663.55L245.07 664.31L244.78 659.48L238.48 659.87L237.92 657.93L234.61 656.68L234.63 661.27L234.61 664.35L234.53 678.78L232.52 677.97L232.34 678.23L228.61 676.45L226.34 679.85L222.95 677.58L220.68 680.97L216.95 679.19L214.68 682.59L213.22 681.62L209.51 679.84L207.24 679.03L200.43 689.23L203.83 691.5L202.53 693.45L205.92 695.72L204.62 697.65L208.35 699.45L205.43 703.81L208.83 706.08L206.4 710.78L209.63 712.24L208.33 714.17L215.14 718.71L212.06 724.38L214.96 726.33L213.18 730.04L220.31 734.09L218.36 737.01L221.75 739.28L219.48 742.68L222.88 744.95L220.61 748.34L240.69 759.44L240.74 759.46L244.21 759.72L244.76 759.77L244.61 761.6L244.48 763.27L244.5 763.55L244.74 767.39L248.82 767.71L249.03 772.41L253.1 772.72L252.78 776.8L256.86 777.11L257.12 781.24L261.19 781.55L260.88 785.63L264.95 785.94L265.21 790.07L269.28 790.38L269.15 792.13L269.41 796.25L269.82 798.63L280.52 799.47L282.04 799.58L282.35 795.51L284.68 795.69L285 791.62L287.32 791.8L287.06 787.68L292.3 788.09L292.62 784.02L297.9 783.84L297.61 780.53L304.76 784.16L310.84 787.47L327.42 796.48L325.15 799.88L339.4 807.99L341.67 804.59L396.05 834.58L398 831.68L416.45 841.89L414.5 844.79L420.64 848.19L429.72 853.54L432.95 855L431 857.92L450.42 868.78L471.78 880.94L473.73 882.24L475.68 879.32L478.6 881.27L481.36 882.75L483.78 884.03L486.54 885.16L488.49 882.26L495.77 887.12L494.15 889.54L495.84 890.42L496.28 890.23L496.41 890.73L507.68 896.63L510.71 901.17L513.04 900.55L514.55 899.54L514.89 900.06L516.02 899.75L517.51 903.98L518.43 905.37L519.73 904.74L519.7 905.24L523.44 905.52L523.8 906.05L524.03 909.68L525.33 909.78L531.6 907.56L532.65 911.5L536.67 910.45L537.89 915.04L541.91 913.97L542.23 915.22L543.49 915.32L543.64 913.44L543.88 913.42L544.2 917.49L546.52 917.31H546.54L559.62 912.45L559.6 912.17L560.59 912.09L563.73 910.92L563.92 907.73L567.99 907.42L567.7 903.66L567.67 903.34L571.75 903.03L571.94 900L571.99 899.09L572.14 898.88L574.15 898.73L574.72 898.41L576.55 899.64L577.86 897.68L578.96 899.35L584.42 896.48L584.26 894.37L587.75 894.74L589.19 893.98L589.48 891.22L593.5 891.66L591.91 889.29L594.24 887.73L599.18 884.42L600.78 886.8L609.34 883.23L611.97 881.48L612.31 882L626.59 876.03L631.66 874.1L651.19 866.69L652.41 871.29L668.15 865.71L666.95 861.11L726.33 839.05L725.28 835.11L745.46 827.65L746.5 831.59L753.23 829.11L763.41 825.71L766.68 824.14L767.72 828.08L789.04 820.32L812.67 811.96L814.97 811.34L813.93 807.4L817.37 806.49L822.95 804.3L825.66 802.89L824.62 798.95L833.24 796.66L834.1 799.93L849.68 793.69L848.82 790.42L872.44 782.04L871.81 777.29L875.26 776.38L874.79 772.28L882.67 769.49L881.63 765.55L883.35 765.1L885.47 763.84L884.43 759.88L888.45 758.83L887.41 754.89L891.27 753.16L890.23 749.22L894.07 747.5L892 739.61L896.02 738.56L886.31 701.76L882.29 702.83L881.67 700.46L883.05 699.8L881.75 697.87L885.14 695.6L883.84 693.65L887.24 691.38L880.43 681.18L878.16 681.99L874.45 683.77L872.99 684.74L870.72 681.34L866.99 683.12L864.72 679.73L861.33 682L859.06 678.6L855.33 680.38L854.65 679.36L853.84 678.14L853.53 674.23L852.95 659.74L848.49 659.47L848.2 664.3L848.27 664.29ZM851.46 678.07L849.73 679.24L849.08 678.27L851.46 678.08V678.07Z" fill="#E8E64A"/>
<path d="M217.215 427.641L220.705 425.84L221.775 427.93L225.015 426.28L225.035 426.26L225.095 426.29L222.825 429.69L226.785 431.88L227.095 465.34L228.975 465.5L229.675 496.75L234.655 497.16L235.305 506.85V510.43L239.235 510.19L239.595 516.29L240.245 516.341L240.385 519.88L245.165 519.61L245.385 523.451L251.835 523.06L252.175 528.891L262.915 528.26L263.485 537.951L270.995 537.5L271.285 542.35L277.095 542.01L279.575 547.701L288.815 547.151L289.045 551.031L295.895 550.62L298.395 556.31L307.495 555.771L308.875 560.56L314.375 560.24L314.655 565.07L320.045 564.75L320.325 569.591L324.145 569.36L323.905 561.201L328.185 561.54L327.995 555.1L328.055 545.47L327.605 542.211L331.885 542.57L331.395 522.19L331.085 499.67L331.265 497.55L326.985 497.19L327.265 494.01L326.985 488.63L326.485 485.91L322.225 485.57L322.875 477.59L326.425 477.88L326.315 476L329.675 477.83L327.405 481.22L341.655 489.33L343.925 485.94L398.305 515.93L400.255 513.01L418.705 523.22L416.755 526.141L422.915 529.54L431.975 534.891L435.205 536.35L433.255 539.25L452.695 550.11L474.045 562.281L475.995 563.56L477.945 560.66L480.865 562.61L486.035 565.37L488.155 566.25L488.235 566.281L488.785 566.51L490.735 563.591L492.615 564.841V570.82L490.525 572.281L488.705 573.87L492.595 581.47V588L493.875 588.1L494.195 588.13L494.145 591.91L496.785 592.23L498.825 592.49L499.105 601.29L499.085 601.82L498.775 609.54L499.395 609.62L500.345 633.74L513.695 632.94L514.325 643.771C524.885 646.571 535.735 647.98 546.715 647.98C557.695 647.98 568.545 646.571 579.095 643.771L579.725 632.94L589.085 633.5L589.165 627.24L589.265 619.151L589.715 598.74L589.955 596.831L587.055 596.47V592.47H591.095L591.155 590.49L591.905 590.43L595.225 590.17V580.98L596.275 581.69L598.525 578.271L602.105 579.97L602.445 579.79L604.505 576.651L606.105 577.701L607.925 578.901L610.175 575.5L613.915 577.3L616.155 573.901L617.635 574.86L621.345 576.641L623.635 577.451L630.425 567.24L627.025 564.99L628.325 563.04L624.925 560.771L626.205 558.82L624.825 558.16L635.115 552.29L654.555 541.43L652.725 538.711L652.615 538.531L654.525 537.651L662.615 532.98L672.845 527.05L674.775 531.391L689.425 523.331L687.475 518.99L742.505 487.62L740.835 483.91L748.325 479.66L748.745 479.98L748.115 482.01L750.415 483.81L749.345 487.17L751.205 488.61L751.485 488.451L760.175 483.52L760.405 483.391L758.135 480L760.665 478.62L761.025 483.63L761.985 483.74L762.135 488.21L765.505 488.6L765.195 491.21L765.635 501.24L766.605 501.35L766.765 537.771L766.815 549.62L763.585 549.211L762.125 549.031L762.385 552.48L763.715 552.641L764.295 567.29L759.315 566.88L759.725 570.66L764.705 571.07L764.765 574.87L766.315 574.961L766.655 569.141L773.085 569.531L773.355 564.69L778.755 565.01L779.025 560.18L784.535 560.5L785.915 555.711L795.015 556.25L797.515 550.56L804.365 550.97L804.595 547.091L813.825 547.641L816.305 541.951L822.125 542.29L822.415 537.44L829.925 537.891L830.495 528.201L841.235 528.831L841.575 523L848.025 523.391L848.245 519.55L853.365 519.841L853.055 497.44L853.215 495.32L852.745 495.29L852.825 491.74L854.155 490.67L854.135 489.13L854.155 486.11C853.835 485.04 853.555 483.99 853.365 483C852.665 479.55 852.605 476.39 852.615 474.33C852.615 473.16 852.675 471.9 852.805 470.42L853.355 459.8L854.105 459.52L854.075 437.8L864.965 431.79L862.695 428.391L866.095 426.12L863.825 422.72L867.215 420.47L865.265 417.55L872.395 413.5L871.265 411.13L877.485 407.71L876.095 403.12L879.335 401.66L878.215 397.7L885.545 393.66L883.875 389.95L885.515 389.22L887.415 387.62L885.745 383.91L889.535 382.21L887.885 378.48L891.405 376.16L889.735 372.43L893.265 370.11L889.925 362.67L893.735 360.97L878.205 326.23L874.415 327.93L870.545 319.24L863.495 323.89L861.545 319.55L857.755 321.25L855.805 316.91L839.985 326.13L838.995 324.2L832.265 328.95L830.385 325.32L826.755 327.18L824.895 323.53L818.055 327.89L804.225 320.27L801.955 323.69L787.055 316.56L785.095 319.48L782.675 317.88L756.435 304.62L733.775 292.33L736.025 288.93L721.775 280.86L719.505 284.25L665.085 254.34L663.135 257.26L644.675 247.06L646.605 244.16L640.445 240.76L631.385 235.43L628.145 233.97L630.095 231.05L610.655 220.22L589.275 208.09L587.325 206.79L586.825 207.54L583.985 201.87L587.715 200.01L572.385 169.29L568.655 171.15L564.825 163.47L557.915 168.3L556.005 164.46L552.295 166.32L550.365 162.48L517.975 182.81L518.865 184.61L514.115 181.94L512.185 184.84L510.715 183.88L508.465 183.05L506.515 185.98L503.115 183.71L501.165 186.61L497.435 184.83L495.485 187.76L491.775 185.98L487.885 191.82L484.495 189.55L478.835 198.04L484.215 203.5L474.685 209.27L476.595 213.11L467.565 218.99L458.795 224.08L460.705 227.91L410.535 259.21L408.605 255.37L405.165 257.79L407.075 261.63L406.785 261.81L406.395 262.04L407.625 264.44L400.625 268.69L393.465 272.99L394.115 274.3L393.775 274.51L394.955 276.83L384.585 283.46L382.725 279.83L380.135 281.16L364.315 291.23L351.075 299.98L349.645 297.19L349.205 297.48L348.765 296.6L330.265 308L310.795 319.95L309.205 318.13L308.635 317.01L307.975 317.42L307.665 317.05L298.025 323.21L299.625 326.32L296.515 329.22L280.695 339.3L268.765 346.72L266.475 343.51L264.955 344.43L264.875 344.3L255.995 349.97L257.855 353.6L253.735 356.18L252.665 355.47L249.585 353.99L248.145 354.88L246.665 357.08L245.515 356.5L242.465 354.98L240.195 358.38L236.795 356.11L234.525 359.5L230.815 357.72L228.545 361.12L225.145 358.85L222.875 362.25L219.145 360.47L216.875 363.86L215.415 362.89L211.705 361.11L209.435 360.3L202.625 370.5L206.025 372.77L204.725 374.72L208.115 376.99L206.815 378.94L210.545 380.72L207.625 385.08L211.025 387.35L208.595 392.05L211.825 393.51L210.525 395.46L216.585 399.5L217.335 400L214.675 404.88L214.835 405.19L214.305 405.56L214.255 405.66L217.155 407.61L217.025 407.87L216.345 408.36L216.575 408.81L215.375 411.34L217.305 412.44L216.645 412.78L213.285 415.16L212.155 416.14L216.185 425.1C216.555 425.92 216.885 426.75 217.205 427.58L217.215 427.641ZM372.615 369.02L374.465 372.67L387.405 364.81L385.765 361.52L386.815 360.87L386.635 360.53L439.315 327.64L439.255 327.51L437.715 324.53L455.625 313.39L455.965 314.07L456.355 313.83L457.575 316.28L457.995 317.12L464.105 313.38L473.405 308.05L476.325 305.91L477.965 309.2L497.355 297.43L518.865 284.61L520.985 283.54L519.345 280.25L522.535 278.65L527.575 275.44L529.955 273.56L528.315 270.27L536.295 266.28L537.655 269.02L547.105 262.91L564.665 280.69L564.485 281.03L566.905 283.41H566.935L569.205 285.66L570.665 283.47L621.695 311.12L619.425 314.52L623.165 316.29L625.415 312.89L632.545 316.94L640.165 321.3L642.415 317.91L653.275 323.71L651.005 327.13L653.435 328.73L669.965 337.61L684.035 344.89L681.785 348.29L701.225 359.12L721.145 370.29L720.335 372.56L719.365 374L730.225 379.84L732.175 376.92L736.215 378.22L741.385 380.99L735.375 384.54L737.225 388.17L698.045 412.96L702.305 416.28L702.155 416.36L694.295 420.641L696.225 424.97L685.395 431.32L683.445 426.98L680.725 428.201L664.195 437.84L650.385 446.27L648.435 441.94L628.645 453.04L614.685 460.84L612.285 462.17L607.435 465.15L587.965 477.08L587.605 476.67L576.855 482.94L576.615 483.09L576.805 483.46L573.695 486.36L570.355 488.47L566.595 488.78L564.395 490.03L562.835 487.451L560.885 486.53L556.475 484.42L554.545 487.32L552.095 485.701L525.865 472.44L503.185 460.15L505.455 456.75L491.195 448.68L488.925 452.07L434.505 422.16L432.555 425.08L414.095 414.88L416.045 411.98L409.885 408.58L400.805 403.25L397.575 401.79L399.505 398.89L380.065 388.05L360.405 376.9L360.255 376.82L372.575 369.02H372.615Z" fill="#E8E64A"/>
<path d="M924.783 487.211C921.643 482.381 917.193 478.301 916.003 472.421C915.163 468.301 916.483 467.981 913.543 465.361C911.673 463.691 909.673 463.081 908.263 460.681C907.673 459.661 907.433 457.201 906.753 456.471C906.513 456.211 905.383 456.201 904.693 455.781C902.583 454.511 901.053 454.131 899.943 451.651C898.393 448.171 899.563 449.081 895.483 446.621C892.143 444.611 889.063 442.601 886.053 440.131C885.743 439.871 885.483 439.601 885.253 439.321C884.143 439.491 883.093 439.581 882.583 439.021C881.923 438.271 879.703 442.481 878.713 442.401C876.573 442.211 877.533 454.021 877.503 456.171C877.143 477.531 879.403 489.851 876.853 511.071C876.193 516.651 875.333 522.271 873.663 527.621L869.383 527.361L868.813 537.041L863.443 536.731L863.213 540.621L856.763 540.231L856.423 546.031L845.693 545.401L845.123 555.111L837.583 554.661L837.293 559.491L826.613 558.861L824.133 564.551L819.793 564.291L819.563 568.161L807.793 567.461L805.293 573.151L797.873 572.711L796.493 577.491L794.253 577.361L793.973 582.221L788.573 581.901L788.293 586.751L781.843 586.361L781.503 592.181L776.133 591.861L775.903 595.751L763.013 594.971L762.673 600.791L757.323 600.471L757.043 605.331L744.143 604.551L743.913 608.411L732.093 607.711L731.753 613.551L722.203 612.971L720.843 617.751L719.643 617.691L719.303 623.491L712.863 623.121L712.633 627.011L700.813 626.301L700.473 632.101L694.023 631.731L693.733 636.591L684.203 636.011L682.853 640.791L664.793 639.701L663.913 642.281L644.883 642.701L644.603 647.161L626.323 647.031L626.033 651.991L594.893 650.131L594.553 655.951C584.013 659.711 567.403 664.231 546.633 664.231C525.863 664.231 509.253 659.711 498.713 655.951L498.373 650.131L467.233 651.991L466.943 647.031L448.653 647.161L448.373 642.701L429.343 642.281L428.463 639.701L410.403 640.791L409.053 636.011L399.523 636.591L399.233 631.731L392.783 632.101L392.443 626.301L380.623 627.011L380.393 623.121L373.953 623.491L373.613 617.691L372.413 617.751L371.053 612.971L361.503 613.551L361.163 607.711L349.343 608.411L349.113 604.551L336.213 605.331L335.933 600.471L330.583 600.791L330.243 594.971L317.353 595.751L317.123 591.861L311.753 592.181L311.413 586.361L304.963 586.751L304.683 581.901L299.283 582.221L299.003 577.361L296.763 577.491L295.383 572.711L287.963 573.151L285.463 567.461L273.693 568.161L273.463 564.291L269.123 564.551L266.643 558.861L255.963 559.491L255.673 554.661L248.133 555.111L247.563 545.401L236.833 546.031L236.493 540.231L230.043 540.621L229.813 536.731L224.443 537.041L223.873 527.361L217.423 527.751L216.803 517.081L210.353 517.471L209.783 507.761L204.413 508.071L203.843 498.391L203.273 498.421C203.683 484.721 204.083 471.031 204.493 457.311C204.753 448.731 204.683 439.371 201.283 431.801C200.163 433.151 198.743 434.361 196.953 435.401C192.693 437.851 186.643 439.391 183.643 443.161C179.753 448.071 177.723 453.421 172.833 457.851C168.923 461.381 163.933 464.581 160.873 468.911C158.073 472.851 157.953 477.321 157.693 481.981C157.283 489.161 156.493 495.741 153.803 502.421C151.893 507.121 148.973 511.581 147.483 516.411C145.783 521.941 146.963 527.221 148.323 532.681C150.103 539.801 151.663 546.721 152.373 554.041C152.563 555.941 152.243 557.771 151.583 559.451L151.863 564.091L157.233 563.781L158.043 577.331L164.483 576.941L164.823 582.781L171.263 582.411L172.103 596.851L172.413 596.931L183.943 596.221L184.283 602.061L190.723 601.691L191.003 606.521L197.443 606.131L197.733 610.981L203.103 610.661L203.393 615.521L211.043 615.071L213.183 622.641L222.233 623.711L222.263 624.131L228.653 623.761L229.013 629.561L235.463 629.171L235.693 633.061L247.513 632.361L247.853 638.161L249.023 638.101L250.403 642.881L259.933 642.301L260.223 647.161L273.123 646.401L273.403 651.251L285.223 650.551L285.563 656.351L296.293 655.721L296.523 659.591L310.493 658.761L310.833 664.561L315.133 664.301L315.623 672.631L322.173 674.191L322.413 678.181L322.563 678.471L340.683 677.371L340.913 681.261L347.363 680.871L347.703 686.691L353.073 686.371L353.353 691.231L365.173 690.531L365.623 698.291L372.173 698.891L372.223 699.811L378.623 699.421L378.963 705.261L390.783 704.561L391.063 709.411L402.883 708.711L403.163 713.541L416.033 712.761L416.323 717.621L429.953 716.811L431.383 722.561L451.613 721.341L464.983 720.551L465.173 723.681L468.903 724.361C492.373 728.491 518.943 732.691 546.633 734.751C574.323 732.691 600.883 728.491 624.363 724.361L628.093 723.681L628.283 720.551L641.653 721.341L661.883 722.561L663.313 716.811L676.943 717.621L677.233 712.761L690.103 713.541L690.383 708.711L702.203 709.411L702.483 704.561L714.303 705.261L714.643 699.421L721.043 699.811L721.093 698.891L727.643 698.291L728.093 690.531L739.913 691.231L740.193 686.371L745.563 686.691L745.903 680.871L752.353 681.261L752.583 677.371L770.703 678.471L770.853 678.181L771.093 674.191L777.643 672.631L778.133 664.301L782.433 664.561L782.773 658.761L796.743 659.591L796.973 655.721L807.703 656.351L808.043 650.551L819.863 651.251L820.143 646.401L833.043 647.161L833.333 642.301L842.863 642.881L844.243 638.101L845.413 638.161L845.753 632.361L857.573 633.061L857.803 629.171L864.253 629.561L864.613 623.761L871.003 624.131L871.033 623.711L880.083 622.641L882.223 615.071L889.873 615.521L890.163 610.661L895.533 610.981L895.823 606.131L902.263 606.521L902.543 601.691L908.983 602.061L909.323 596.221L912.883 596.441C913.313 593.561 914.733 590.681 917.473 588.091C919.063 586.591 920.543 585.061 921.933 583.491L921.993 582.401L922.833 582.451C929.093 575.071 932.983 566.931 933.223 557.351C933.573 543.301 930.513 529.161 928.693 515.291C927.443 505.771 926.403 496.441 924.793 487.201L924.783 487.211Z" fill="#E8E64A"/>
</svg>
